<svg id="eBJEmRjPSYq1" xmlns="http://www.w3.org/2000/svg" xmlns:xlink="http://www.w3.org/1999/xlink" viewBox="0 0 241.37 241.37" shape-rendering="geometricPrecision" text-rendering="geometricPrecision">
    <g>
        <path d="M157.949935,-1.0303c0-16.105592-7.677193-30.815109-20.053094-38.376305-1.686794-1.04035-3.728169-.970371-5.356204.166782-1.642218,1.132488-2.632006,3.171201-2.632006,5.370864v25.426751h-19.414847v-25.426751c0-2.20083-.999919-4.238376-2.635046-5.370864-1.644244-1.135987-3.685619-1.207132-5.35823-.166782-12.372862,7.561196-20.063224,22.264882-20.063224,38.376305c0,12.676637,4.672369,24.424891,12.922969,32.708033v137.875485c-8.2506,8.283143-12.922969,20.026731-12.922969,32.699869c0,16.089264,7.684284,30.796449,20.058159,38.375139c1.677676,1.035684,3.719051.965706,5.35823-.155119c1.640192-1.130156,2.640111-3.171201,2.640111-5.373196v-28.13376h19.414847v28.13376c0,2.203162.999919,4.247705,2.637072,5.373196.863152.595985,1.831665.896893,2.807271.896893.87227,0,1.755684-.246092,2.553998-.730111c12.370836-7.586855,20.048028-22.291707,20.048028-38.380971c0-12.671971-4.667303-24.415559-12.916891-32.698702v-137.876651c8.239457-8.288974,12.911826-20.038394,12.911826-32.713865Z" transform="matrix(-.707107 0.707107-.707107-.707107 276.821298 106.838284)" fill="#f88634" />
    </g>
    <polygon points="14.973976,-8.790314 45.257092,26.864163 45.257092,26.864164 0.956167,36.12023 14.973976,-8.790314 14.973976,-8.790314" transform="matrix(.999391-.034899 0.034899 0.999391 10.400559 184.149716)" fill="#f88634" stroke-width="0" />
    <rect width="19.706098" height="40.499082" rx="0" ry="0" transform="matrix(2.176281-1.962131 0.884618 0.981166 33.186335 163.153889)" fill="#f88634" stroke-width="0" />
    <rect width="21.644264" height="40.499082" rx="0" ry="0" transform="matrix(2.176281-1.962131 0.884618 0.981166 127.434655 76.621697)" fill="#f88634" stroke-width="0" />
    <rect width="53.996613" height="30.638135" rx="0" ry="0" transform="matrix(.669131 0.743145-.743145 0.669131 203.683769 8.761215)" fill="#f88634" stroke-width="0" />
</svg>